<svg width="77" height="61" viewBox="0 0 77 61" fill="none" xmlns="http://www.w3.org/2000/svg">
<g id="Group 389">
<path id="Vector" d="M0.87793 24.0022C0.934678 23.8784 0.983592 23.7517 1.02442 23.6226C1.31663 22.3999 2.04852 21.3068 3.09898 20.524C4.14944 19.7412 5.45551 19.3157 6.80111 19.3179C9.51723 19.2995 12.234 19.2995 14.9515 19.3179C15.1436 19.3326 15.3364 19.298 15.5089 19.2177C15.6813 19.1375 15.8268 19.0147 15.9294 18.8628C20.356 13.165 24.7885 7.47215 29.2269 1.78421C30.7156 -0.134091 33.4694 -0.576351 35.5124 0.803865C37.5554 2.18408 37.9276 4.74181 36.3676 6.66195C33.183 10.5858 29.9944 14.5071 26.8018 18.426C26.6038 18.6785 26.4059 18.9346 26.1406 19.2608H51.4805C51.3043 19.0323 51.1598 18.8388 51.0073 18.6509C47.7448 14.6374 44.483 10.6239 41.2218 6.61036C40.8596 6.17926 40.5947 5.68457 40.4428 5.15591C40.291 4.62725 40.2553 4.0755 40.3379 3.5337C40.4205 2.9919 40.6198 2.47119 40.9237 2.00276C41.2276 1.53433 41.63 1.12781 42.1067 0.807551C42.5799 0.482402 43.1178 0.248121 43.6892 0.118347C44.2606 -0.0114277 44.854 -0.0341039 45.4349 0.0516421C46.0158 0.137388 46.5726 0.329844 47.0728 0.617799C47.573 0.905755 48.0067 1.28346 48.3486 1.72892C52.7699 7.40089 57.1912 13.0747 61.6124 18.7504C61.7363 18.9418 61.9152 19.0973 62.1289 19.1992C62.3426 19.3011 62.5827 19.3454 62.8221 19.3271C65.3956 19.2977 67.9573 19.3124 70.5269 19.3161C73.6212 19.3161 76.0443 21.0593 76.6164 23.6852C77.2103 26.3812 75.7949 28.8136 72.9501 29.9635C72.501 30.1332 72.0375 30.2676 71.5643 30.3652C70.7467 30.5495 70.4319 31.0912 70.2953 31.8044C69.6935 34.9469 69.0838 38.0875 68.4661 41.2263C67.4228 46.5703 66.3894 51.9364 65.3283 57.2858C65.1532 58.2499 64.6124 59.1236 63.8041 59.7481C62.9959 60.3726 61.9738 60.7066 60.9235 60.6894C46.2053 60.7004 31.4857 60.7004 16.7648 60.6894C14.4744 60.6894 12.7164 59.2797 12.3066 57.1882C10.6674 48.7853 9.02957 40.3817 7.39303 31.9776C7.15943 30.7816 6.91197 30.6748 5.61132 30.3191C3.35053 29.6963 1.71136 28.3916 1.05806 26.1858C1.00659 26.0108 0.941283 25.8394 0.881893 25.6662L0.87793 24.0022ZM67.5594 30.3375H45.292C45.0209 30.3497 44.7492 30.3386 44.4803 30.3044C44.1361 30.249 43.8244 30.081 43.6016 29.8307C43.3787 29.5803 43.2592 29.264 43.2648 28.9389C43.2747 28.6027 43.4161 28.2814 43.6625 28.0353C43.909 27.7893 44.2434 27.6356 44.6031 27.6029C44.8495 27.5863 45.0966 27.5826 45.3435 27.5918H70.1607C70.4577 27.5918 70.7546 27.6029 71.0496 27.5808C71.7447 27.5261 72.3975 27.247 72.8949 26.7917C73.3923 26.3364 73.7032 25.7336 73.7736 25.0876C73.8402 24.4524 73.6646 23.8157 73.2778 23.2888C72.8909 22.7619 72.3173 22.3785 71.6573 22.2055C71.2759 22.1148 70.883 22.0726 70.4893 22.0802C49.3728 22.0802 28.2595 22.0802 7.14954 22.0802C7.00106 22.0802 6.85259 22.0802 6.70609 22.0802C5.99657 22.1025 5.31911 22.3607 4.79649 22.8079C4.27388 23.2552 3.9407 23.8619 3.85733 24.5182C3.77773 25.1754 3.95673 25.8371 4.36112 26.3809C4.76551 26.9247 5.3679 27.3137 6.05675 27.4758C6.46559 27.5585 6.88377 27.5944 7.30197 27.5826C15.6245 27.5826 23.9464 27.5826 32.2677 27.5826C32.5145 27.5737 32.7616 27.5768 33.0081 27.5918C33.3684 27.6212 33.7049 27.7721 33.9542 28.016C34.2035 28.26 34.3486 28.5803 34.3622 28.9168C34.3706 29.2651 34.2378 29.6036 33.9901 29.8648C33.7425 30.1261 33.3983 30.2909 33.0259 30.3265C32.7796 30.3437 32.5324 30.348 32.2855 30.3394H10.0518C10.1191 30.6711 10.1725 30.9162 10.22 31.1631C11.8592 39.5635 13.499 47.9659 15.1395 56.37C15.3791 57.5917 15.8126 57.9253 17.135 57.9253H60.4722C61.8104 57.9253 62.2539 57.5991 62.4835 56.3866C64.1702 47.746 65.8529 39.0961 67.5594 30.3375ZM19.2375 19.3124C20.2273 19.3124 21.035 19.3474 21.8447 19.294C22.1675 19.2662 22.4669 19.1252 22.6821 18.8996C26.4501 14.3026 30.2036 9.69572 33.9425 5.07903C34.5661 4.31061 34.481 3.52376 33.7445 3.03359C33.0081 2.54342 32.1747 2.72769 31.5669 3.49427L23.2681 14.1343L19.2375 19.3124ZM58.3955 19.3124C56.7801 17.2448 55.2735 15.3155 53.769 13.3861C51.1901 10.0802 48.6119 6.77374 46.0344 3.46663C45.4405 2.71111 44.5853 2.54526 43.8567 3.04096C43.1737 3.51086 43.053 4.29955 43.6073 4.98321C47.3964 9.6515 51.1934 14.3198 54.9984 18.9881C55.1441 19.1621 55.3573 19.2759 55.5923 19.305C56.4693 19.3327 57.3522 19.3124 58.3955 19.3124Z" fill="#343A40"/>
<path id="Vector_2" d="M28.4406 44.1396C28.4406 45.9105 28.4406 47.6814 28.4406 49.4504C28.4406 51.9326 26.5341 53.7864 24.012 53.7938C21.4899 53.8011 19.5597 51.951 19.5538 49.4799C19.5459 45.9173 19.5459 42.3546 19.5538 38.792C19.5538 36.3282 21.4879 34.48 24.018 34.4892C26.5183 34.4892 28.4247 36.3319 28.4406 38.7625C28.4485 40.55 28.4406 42.3466 28.4406 44.1396ZM22.5134 44.0714C22.5134 45.8386 22.5134 47.604 22.5134 49.3712C22.5134 50.3828 23.0697 51.0112 23.9586 51.0296C24.8474 51.0481 25.475 50.4013 25.475 49.3712C25.475 45.8847 25.475 42.3976 25.475 38.9099C25.475 37.8946 24.9227 37.2717 24.0298 37.2514C23.137 37.2312 22.5174 37.8743 22.5134 38.9099C22.5094 40.631 22.5134 42.3503 22.5134 44.0714Z" fill="#343A40"/>
<path id="Vector_3" d="M43.2589 44.1396C43.2589 45.9326 43.2688 47.7256 43.2589 49.5186C43.2431 51.9437 41.3287 53.7864 38.8324 53.7938C36.3063 53.7938 34.3781 51.951 34.3721 49.4817C34.3642 45.9191 34.3642 42.3565 34.3721 38.7938C34.3721 36.3282 36.3063 34.48 38.8363 34.4892C41.3664 34.4984 43.2431 36.3319 43.2589 38.7607C43.2688 40.55 43.2589 42.3466 43.2589 44.1396ZM40.2894 44.1599C40.2894 42.3927 40.2894 40.6255 40.2894 38.8602C40.2894 37.8706 39.6955 37.2404 38.7948 37.2478C37.894 37.2551 37.3318 37.8835 37.3298 38.8878C37.3298 42.3976 37.3298 45.9074 37.3298 49.4172C37.3298 50.4068 37.9237 51.0407 38.8244 51.0315C39.7252 51.0223 40.2874 50.3921 40.2894 49.3896C40.2993 47.6464 40.2954 45.9031 40.2954 44.1599H40.2894Z" fill="#343A40"/>
<path id="Vector_4" d="M58.0783 44.1286C58.0783 45.9215 58.0783 47.7145 58.0783 49.5094C58.0625 51.9381 56.156 53.7808 53.6616 53.7937C51.1336 53.8048 49.1975 51.951 49.1915 49.4928C49.181 45.9301 49.181 42.3675 49.1915 38.8049C49.1915 36.3337 51.1138 34.4836 53.6438 34.4891C56.1738 34.4947 58.0664 36.3319 58.0783 38.8196C58.0842 40.5886 58.0783 42.3595 58.0783 44.1286ZM52.1511 44.0714C52.1511 45.8386 52.1511 47.604 52.1511 49.3712C52.1511 50.3828 52.7074 51.0112 53.5963 51.0296C54.4852 51.0481 55.1108 50.4013 55.1127 49.3712C55.1127 45.8847 55.1127 42.3976 55.1127 38.9099C55.1127 37.8945 54.5604 37.2735 53.6676 37.2514C52.7747 37.2293 52.1551 37.8743 52.1511 38.9099C52.1472 40.631 52.1511 42.3503 52.1511 44.0714Z" fill="#343A40"/>
<path id="Vector_5" d="M40.2887 28.9924C40.2763 29.3616 40.1068 29.7111 39.8176 29.964C39.5284 30.217 39.1431 30.3527 38.7465 30.3412C38.3631 30.3205 38.003 30.1633 37.7407 29.9023C37.4783 29.6413 37.3338 29.2964 37.337 28.9389C37.3426 28.7563 37.387 28.5765 37.4675 28.4099C37.5481 28.2432 37.6633 28.0931 37.8064 27.9681C37.9496 27.843 38.1179 27.7456 38.3016 27.6814C38.4854 27.6171 38.681 27.5873 38.8772 27.5937C39.2607 27.6127 39.6216 27.7687 39.8845 28.0293C40.1475 28.2899 40.2923 28.6349 40.2887 28.9924Z" fill="#343A40"/>
</g>
</svg>
