<svg id="Layer_1" data-name="Layer 1" xmlns="http://www.w3.org/2000/svg" viewBox="0 0 333.67 74.23"><defs><style>.cls-1{fill:#333;}.cls-2{fill:#00c853;}.cls-3{fill:#02aa46;}</style></defs><title>logo_v1.1_dark</title><path class="cls-1" d="M94.49,22.48V65h-10V22.48H73V13.89h33v8.58H94.49Z"/><path class="cls-1" d="M105.75,31.83h9.35v5a11.2,11.2,0,0,1,4.14-4.6,10.18,10.18,0,0,1,5.52-1.46,11.52,11.52,0,0,1,4,.77l-1.23,8.74A7,7,0,0,0,123.15,39a7.63,7.63,0,0,0-6.21,2.68c-1.76,2.22-1.84,5.06-1.84,7.36V65h-9.35V31.83Z"/><path class="cls-1" d="M156.1,31.83h9.35V65H156.1V60.72a11.9,11.9,0,0,1-10.19,5.36c-10.19,0-16.93-8-16.93-17.7s6.67-17.62,16.48-17.62a12,12,0,0,1,10.65,5.36V31.83ZM138.63,48.38a9.2,9.2,0,1,0,18.39,0A9.2,9.2,0,1,0,138.63,48.38Z"/><path class="cls-1" d="M197.41,41.94A10.79,10.79,0,0,0,189.74,39c-6.21,0-9.35,4.52-9.35,9.35,0,5.44,4.06,9.43,9.66,9.43a10.83,10.83,0,0,0,7.36-2.91V64a18.94,18.94,0,0,1-8.58,2.07A18.73,18.73,0,0,1,176,61.25a17,17,0,0,1-5.29-12.72,17.1,17.1,0,0,1,17.7-17.78,19.8,19.8,0,0,1,9,2v9.2Z"/><path class="cls-1" d="M207.22,12.21a5.59,5.59,0,1,1-5.59,5.59A5.63,5.63,0,0,1,207.22,12.21Zm4.67,19.62V65h-9.35V31.83h9.35Z"/><path class="cls-1" d="M228.37,39.8V65H219V39.8h-3.52v-8H219V23.55c0-3.45-.08-6.36,2.45-9.81,2.45-3.29,6.9-5.52,13.26-5.52,4.21,0,10.34.92,13.41,5.52,2.53,3.75,2.3,7.36,2.3,9.81v2.22h-9.35v-2a8.23,8.23,0,0,0-1-4.6,6.87,6.87,0,0,0-10.65,0,8.84,8.84,0,0,0-1.07,4.6v8H237v8h-8.58Zm22.07-8V65h-9.35V31.83h9.35Z"/><path class="cls-1" d="M290,55.73c-1,2.45-4.75,10.35-16.32,10.35-5.36,0-9.43-1.53-12.72-4.67-3.68-3.45-5.21-7.74-5.21-13a17.67,17.67,0,0,1,5.06-13c3.91-3.83,8.51-4.67,12.49-4.67,6.74,0,10.65,2.68,13,5.44,3.53,4.21,4,9.42,4,13V50H265.38A9.79,9.79,0,0,0,267,55.58a7.9,7.9,0,0,0,6.67,3.14,8.56,8.56,0,0,0,7.74-4.37ZM281.4,44a8,8,0,0,0-15.71,0H281.4Z"/><path class="cls-1" d="M320.94,9.14h9.35V65h-9.35V60.72a11.9,11.9,0,0,1-10.19,5.36c-10.19,0-16.93-8-16.93-17.7s6.67-17.62,16.48-17.62a12,12,0,0,1,10.65,5.36v-27ZM303.47,48.38a9.2,9.2,0,1,0,18.39,0A9.2,9.2,0,1,0,303.47,48.38Z"/><path class="cls-2" d="M30.93,56.56L11.42,32.68l10-7.85L32.12,40l28-23.92a16.22,16.22,0,0,0-14.1-7.55H21.29c-9.09,0-16.62,6.66-16.62,15.75V49.09c0,9.09,7.54,17.48,16.62,17.48H46.07c9.09,0,16.6-8.39,16.6-17.48V28.62Z"/><path class="cls-3" d="M38.8,66.57h7.27c9.09,0,16.6-8.39,16.6-17.48V28.62L30.93,57Z"/></svg>