<svg id="Layer_1" data-name="Layer 1" xmlns="http://www.w3.org/2000/svg" viewBox="0 0 333.67 74.23"><defs><style>.cls-1{fill:#fff;}.cls-2{fill:#00c853;}.cls-3{fill:#02aa46;}</style></defs><title>logo_v1.1_light</title><path class="cls-1" d="M94.82,21.91V64.44h-10V21.91H73.37V13.33h33v8.58H94.82Z"/><path class="cls-1" d="M106.09,31.26h9.35v5a11.2,11.2,0,0,1,4.14-4.6,10.18,10.18,0,0,1,5.52-1.46,11.52,11.52,0,0,1,4,.77l-1.23,8.74a7,7,0,0,0-4.37-1.23,7.63,7.63,0,0,0-6.21,2.68c-1.76,2.22-1.84,5.06-1.84,7.36V64.44h-9.35V31.26Z"/><path class="cls-1" d="M156.44,31.26h9.35V64.44h-9.35V60.15a11.9,11.9,0,0,1-10.19,5.36c-10.19,0-16.93-8-16.93-17.7S136,30.19,145.78,30.19a12,12,0,0,1,10.65,5.36V31.26ZM139,47.81a9.2,9.2,0,1,0,18.39,0A9.2,9.2,0,1,0,139,47.81Z"/><path class="cls-1" d="M197.74,41.38a10.79,10.79,0,0,0-7.66-2.91c-6.21,0-9.35,4.52-9.35,9.35,0,5.44,4.06,9.43,9.66,9.43a10.83,10.83,0,0,0,7.36-2.91v9.12a18.94,18.94,0,0,1-8.58,2.07,18.73,18.73,0,0,1-12.8-4.83A17,17,0,0,1,171.07,48a17.1,17.1,0,0,1,17.7-17.78,19.8,19.8,0,0,1,9,2v9.2Z"/><path class="cls-1" d="M207.55,11.64A5.59,5.59,0,1,1,202,17.24,5.63,5.63,0,0,1,207.55,11.64Zm4.67,19.62V64.44h-9.35V31.26h9.35Z"/><path class="cls-1" d="M228.7,39.23V64.44h-9.35V39.23h-3.52v-8h3.52V23c0-3.45-.08-6.36,2.45-9.81,2.45-3.29,6.9-5.52,13.26-5.52,4.21,0,10.34.92,13.41,5.52,2.53,3.75,2.3,7.36,2.3,9.81v2.22h-9.35v-2a8.23,8.23,0,0,0-1-4.6,6.87,6.87,0,0,0-10.65,0,8.84,8.84,0,0,0-1.07,4.6v8h8.58v8H228.7Zm22.07-8V64.44h-9.35V31.26h9.35Z"/><path class="cls-1" d="M290.31,55.17c-1,2.45-4.75,10.35-16.32,10.35-5.36,0-9.43-1.53-12.72-4.67-3.68-3.45-5.21-7.74-5.21-13a17.67,17.67,0,0,1,5.06-13c3.91-3.83,8.51-4.67,12.49-4.67,6.74,0,10.65,2.68,13,5.44,3.53,4.21,4,9.42,4,13v0.77H265.72A9.79,9.79,0,0,0,267.33,55,7.9,7.9,0,0,0,274,58.16a8.56,8.56,0,0,0,7.74-4.37Zm-8.58-11.72a8,8,0,0,0-15.71,0h15.71Z"/><path class="cls-1" d="M321.28,8.58h9.35V64.44h-9.35V60.15a11.9,11.9,0,0,1-10.19,5.36c-10.19,0-16.93-8-16.93-17.7s6.67-17.62,16.48-17.62a12,12,0,0,1,10.65,5.36v-27ZM303.8,47.81a9.2,9.2,0,1,0,18.39,0A9.2,9.2,0,1,0,303.8,47.81Z"/><path class="cls-2" d="M31.26,56L11.76,32.12l10-7.85,10.68,15.2,28-23.92A16.22,16.22,0,0,0,46.4,8H21.62C12.54,8,5,14.66,5,23.75V48.52C5,57.61,12.54,66,21.62,66H46.4C55.49,66,63,57.61,63,48.52V28.06Z"/><path class="cls-3" d="M39.13,66H46.4C55.49,66,63,57.61,63,48.52V28.06L31.26,56.46Z"/></svg>