<svg xmlns="http://www.w3.org/2000/svg" width="19.198" height="18.197" viewBox="0 0 19.198 18.197"><g transform="translate(-17 -253)"><g transform="translate(17 253)"><path d="M46.883,170.27l-3.736,5.883a2.133,2.133,0,0,1,.463,1.336,2.057,2.057,0,1,1-4.113,0,2.386,2.386,0,0,1,.034-.392l-2.468-1.477a2.013,2.013,0,0,1-2.438.318L32,178.469v2.523a1.861,1.861,0,0,0,1.829,1.883H49.368a1.861,1.861,0,0,0,1.829-1.883v-9.376L48.687,169.9a2.006,2.006,0,0,1-1.8.37Z" transform="translate(-32 -164.678)"/><path d="M35.642,55.24A2.057,2.057,0,0,1,37.7,57.3c0,.09-.009.18-.017.266L40.256,59a2.038,2.038,0,0,1,1.3-.463,2.152,2.152,0,0,1,.446.047l3.744-5.8a2.035,2.035,0,0,1-.381-1.191,2.056,2.056,0,0,1,4.113,0,2.235,2.235,0,0,1-.056.484l1.769,1.182V49.829A1.834,1.834,0,0,0,49.364,48H33.829A1.834,1.834,0,0,0,32,49.829v9.824l1.714-1.641a2.056,2.056,0,0,1,1.928-2.772Z" transform="translate(-32 -48)"/></g></g></svg>