<svg width="31" height="31" viewBox="0 0 31 31" fill="none" xmlns="http://www.w3.org/2000/svg">
<circle cx="15.5" cy="15.5" r="15.5" fill="#474952"/>
<mask id="mask0_1387_69" style="mask-type:alpha" maskUnits="userSpaceOnUse" x="6" y="6" width="20" height="20">
<rect x="6" y="6" width="20" height="20" fill="#D9D9D9"/>
</mask>
<g mask="url(#mask0_1387_69)">
<path d="M10.1667 21.8334H11.3333L18.5208 14.6459L17.3542 13.4792L10.1667 20.6667V21.8334ZM22.0833 13.4376L18.5417 9.93758L19.7083 8.77091C20.0278 8.45147 20.4201 8.29175 20.8854 8.29175C21.3507 8.29175 21.7431 8.45147 22.0625 8.77091L23.2292 9.93758C23.5486 10.257 23.7153 10.6424 23.7292 11.0938C23.7431 11.5452 23.5903 11.9306 23.2708 12.2501L22.0833 13.4376ZM20.875 14.6667L12.0417 23.5001H8.5V19.9584L17.3333 11.1251L20.875 14.6667Z" fill="white"/>
</g>
</svg>
