<svg width="21" height="21" viewBox="0 0 21 21" fill="none" xmlns="http://www.w3.org/2000/svg">
<path d="M15.8594 6.78503C15.4766 6.55816 14.9844 6.55816 14.5469 6.78503L11.4844 8.65667L9.40625 9.84772L6.39844 11.7194C6.01562 11.9462 5.52344 11.9462 5.08594 11.7194L2.73437 10.2447C2.35156 10.0179 2.07812 9.56413 2.07812 9.05369V6.21786C2.07812 5.76413 2.29687 5.3104 2.73437 5.02682L5.08594 3.60891C5.46875 3.38204 5.96094 3.38204 6.39844 3.60891L8.75 5.08354C9.13281 5.3104 9.40625 5.76413 9.40625 6.27458V8.14622L11.4844 6.89846V4.9701C11.4844 4.51637 11.2656 4.06264 10.8281 3.77906L6.45312 1.11339C6.07031 0.886521 5.57812 0.886521 5.14062 1.11339L0.65625 3.83577C0.21875 4.06264 0 4.51637 0 4.9701V10.3014C0 10.7552 0.21875 11.2089 0.65625 11.4925L5.08594 14.1582C5.46875 14.385 5.96094 14.385 6.39844 14.1582L9.40625 12.3432L11.4844 11.0955L14.4922 9.28055C14.875 9.05369 15.3672 9.05369 15.8047 9.28055L18.1562 10.6985C18.5391 10.9253 18.8125 11.3791 18.8125 11.8895V14.7253C18.8125 15.1791 18.5937 15.6328 18.1562 15.9164L15.8594 17.3343C15.4766 17.5611 14.9844 17.5611 14.5469 17.3343L12.1953 15.9164C11.8125 15.6895 11.5391 15.2358 11.5391 14.7253V12.9104L9.46094 14.1582V16.0298C9.46094 16.4835 9.67969 16.9373 10.1172 17.2208L14.5469 19.8865C14.9297 20.1134 15.4219 20.1134 15.8594 19.8865L20.2891 17.2208C20.6719 16.994 20.9453 16.5403 20.9453 16.0298V10.6417C20.9453 10.188 20.7266 9.73428 20.2891 9.4507L15.8594 6.78503Z" fill="black"/>
</svg>
