<svg width="20" height="16" viewBox="0 0 20 16" fill="none" xmlns="http://www.w3.org/2000/svg">
<path d="M3.59391 11.5822C3.71076 11.4654 3.87142 11.3972 4.04182 11.3972H19.4945C19.7768 11.3972 19.918 11.738 19.7184 11.9376L16.6659 14.9902C16.549 15.107 16.3884 15.1752 16.218 15.1752H0.76531C0.482937 15.1752 0.34175 14.8344 0.541359 14.6348L3.59391 11.5822Z" fill="black"/>
<path d="M3.59391 0.185003C3.71563 0.0681591 3.87629 0 4.04182 0H19.4945C19.7768 0 19.918 0.340796 19.7184 0.540405L16.6659 3.59296C16.549 3.7098 16.3884 3.77796 16.218 3.77796H0.76531C0.482937 3.77796 0.34175 3.43717 0.541359 3.23756L3.59391 0.185003Z" fill="black"/>
<path d="M16.6659 5.84711C16.549 5.73027 16.3884 5.66211 16.218 5.66211H0.76531C0.482937 5.66211 0.34175 6.0029 0.541359 6.20251L3.59391 9.25507C3.71076 9.37191 3.87142 9.44007 4.04182 9.44007H19.4945C19.7768 9.44007 19.918 9.09928 19.7184 8.89967L16.6659 5.84711Z" fill="black"/>
</svg>
