<svg width="22" height="17" viewBox="0 0 22 17" fill="none" xmlns="http://www.w3.org/2000/svg">
<path d="M18.8934 2.22431L16.2446 3.45671L3.45387 9.40624C3.41061 9.10499 3.38885 8.80149 3.38872 8.49766C3.39046 7.28539 3.73899 6.09458 4.39977 5.04316C5.06054 3.99175 6.01064 3.11622 7.15596 2.50331C8.30127 1.8904 9.60206 1.56136 10.9295 1.5488C12.2569 1.53624 13.5649 1.84058 14.7238 2.43169L16.24 1.72624L16.4661 1.62085C15.0773 0.700282 13.4367 0.148312 11.7258 0.0259494C10.0149 -0.0964133 8.30026 0.215596 6.77139 0.927493C5.24253 1.63939 3.95896 2.72345 3.06257 4.05987C2.16617 5.39629 1.69185 6.93301 1.69203 8.50021C1.69203 8.71666 1.70103 8.93226 1.71902 9.14701C1.74422 9.45112 1.67037 9.75525 1.50674 10.0211C1.34312 10.287 1.09705 10.5027 0.79948 10.6412L0 11.0135V12.7499L2.35377 11.6543L3.11602 11.299L3.8671 10.9497L17.3512 4.67551L18.8664 3.97092L21.9983 2.51328V0.77772L18.8934 2.22431Z" fill="black"/>
<path d="M21.9983 4.25098L4.63307 12.3253L3.11788 13.0316L0 14.4825V16.2172L3.09647 14.7765L5.74527 13.5441L18.5491 7.58611C18.5923 7.88935 18.6141 8.19483 18.6142 8.50064C18.6134 9.71431 18.265 10.9067 17.6035 11.9594C16.9421 13.0121 15.9907 13.8885 14.8437 14.5016C13.6968 15.1147 12.3941 15.4432 11.0652 15.4544C9.73622 15.4657 8.42714 15.1593 7.26791 14.5658L7.17484 14.6108L5.53121 15.3757C6.91976 16.2963 8.55997 16.8485 10.2706 16.9711C11.9812 17.0938 13.6957 16.7822 15.2246 16.0708C16.7535 15.3594 18.0372 14.2758 18.934 12.9399C19.8308 11.604 20.3057 10.0676 20.3062 8.50064C20.3062 8.28221 20.2969 8.06378 20.2792 7.84789C20.2541 7.54389 20.3279 7.23987 20.4913 6.97403C20.6547 6.70819 20.9005 6.49238 21.1979 6.35371L21.9983 5.98144V4.25098Z" fill="black"/>
</svg>
