<svg width="11" height="9" viewBox="0 0 11 9" fill="none" xmlns="http://www.w3.org/2000/svg">
<g id="stellar-xlm-logo (4) 1" clip-path="url(#clip0_26_682)">
<g id="Layer 2">
<g id="Layer 1">
<path id="Vector" d="M9.44745 1.17696L8.12295 1.82946L1.72707 4.97947C1.70544 4.81997 1.69456 4.65928 1.69449 4.49841C1.69537 3.85658 1.86964 3.22609 2.20006 2.66942C2.53047 2.11274 3.00556 1.64919 3.57826 1.32468C4.15096 1.00018 4.80141 0.825968 5.46517 0.819316C6.12892 0.812665 6.78296 0.973802 7.3625 1.28676L8.12062 0.913265L8.23371 0.857465C7.53922 0.370065 6.71888 0.0778224 5.86337 0.0130371C5.00785 -0.0517483 4.15046 0.113446 3.38596 0.490363C2.62147 0.867279 1.97964 1.44124 1.53141 2.14881C1.08317 2.85638 0.845994 3.67001 0.846082 4.49976C0.846082 4.61436 0.850581 4.72851 0.859579 4.84222C0.87218 5.00323 0.835249 5.16425 0.753432 5.30502C0.671615 5.44578 0.548567 5.56001 0.399772 5.63332L0 5.83041V6.74976L1.17698 6.16971L1.55813 5.98161L1.9337 5.79666L8.6763 2.47476L9.43396 2.10171L11 1.32996V0.411065L9.44745 1.17696Z" fill="white"/>
<path id="Vector_2" d="M11 2.25L2.31672 6.525L1.55906 6.89895L0 7.6671V8.58555L1.54836 7.8228L2.87286 7.1703L9.27526 4.0158C9.2969 4.17635 9.30778 4.33809 9.30784 4.5C9.30742 5.14258 9.1332 5.77388 8.80246 6.33124C8.47173 6.88859 7.99598 7.3526 7.42245 7.67721C6.84892 8.00183 6.19756 8.17575 5.53302 8.18171C4.86849 8.18767 4.2139 8.02547 3.63424 7.7112L3.5877 7.73505L2.76582 8.14005C3.46015 8.62746 4.28032 8.91979 5.13571 8.98473C5.99109 9.04968 6.8484 8.8847 7.61289 8.50804C8.37739 8.13138 9.01931 7.5577 9.46774 6.85038C9.91617 6.14306 10.1536 5.32964 10.1539 4.5C10.1539 4.38435 10.1493 4.2687 10.1404 4.1544C10.1278 3.99344 10.1647 3.83248 10.2465 3.69173C10.3282 3.55098 10.4511 3.43672 10.5998 3.3633L11 3.1662V2.25Z" fill="white"/>
</g>
</g>
</g>
<defs>
<clipPath id="clip0_26_682">
<rect width="11" height="9" fill="white"/>
</clipPath>
</defs>
</svg>
