<svg width="42" height="42" viewBox="0 0 42 42" fill="none" xmlns="http://www.w3.org/2000/svg">
<circle cx="21" cy="21" r="21" fill="white"/>
<g clip-path="url(#clip0_1552_66)">
<path d="M30.1892 12.1395L26.9381 13.8795L11.2392 22.2795C11.1861 21.8541 11.1594 21.4256 11.1592 20.9967C11.1614 19.2851 11.5891 17.6038 12.4001 16.1193C13.2112 14.6349 14.3773 13.3987 15.783 12.5334C17.1887 11.668 18.7853 11.2035 20.4145 11.1857C22.0437 11.168 23.6491 11.5977 25.0716 12.4323L26.9324 11.4363L27.21 11.2875C25.5054 9.98773 23.4918 9.20842 21.3919 9.03566C19.292 8.8629 17.1875 9.30342 15.311 10.3085C13.4345 11.3136 11.8591 12.8442 10.7589 14.7311C9.6587 16.6179 9.07653 18.7876 9.07675 21.0003C9.07675 21.3059 9.08779 21.6103 9.10987 21.9135C9.14081 22.3428 9.05016 22.7722 8.84933 23.1476C8.64851 23.523 8.34648 23.8276 7.98126 24.0231L7 24.5487V27.0003L9.88894 25.4535L10.8245 24.9519L11.7464 24.4587L28.2964 15.6003L30.1561 14.6055L34 12.5475V10.0971L30.1892 12.1395Z" fill="black"/>
<path d="M34 15L12.6865 26.4L10.8268 27.3972L7 29.4456V31.8948L10.8005 29.8608L14.0516 28.1208L29.7665 19.7088C29.8197 20.1369 29.8464 20.5682 29.8465 21C29.8455 22.7136 29.4179 24.397 28.606 25.8833C27.7942 27.3696 26.6265 28.6069 25.2187 29.4726C23.811 30.3382 22.2122 30.802 20.5811 30.8179C18.9499 30.8338 17.3432 30.4012 15.9204 29.5632L15.8062 29.6268L13.7888 30.7068C15.4931 32.0066 17.5062 32.7861 19.6058 32.9593C21.7054 33.1325 23.8097 32.6925 25.6862 31.6881C27.5627 30.6837 29.1383 29.1539 30.239 27.2677C31.3397 25.3815 31.9226 23.2124 31.9233 21C31.9233 20.6916 31.9118 20.3832 31.8901 20.0784C31.8592 19.6492 31.9498 19.2199 32.1504 18.8446C32.351 18.4693 32.6527 18.1646 33.0176 17.9688L34 17.4432V15Z" fill="black"/>
</g>
<defs>
<clipPath id="clip0_1552_66">
<rect width="27" height="24" fill="white" transform="translate(7 9)"/>
</clipPath>
</defs>
</svg>
