<svg width="27" height="24" viewBox="0 0 27 24" fill="none" xmlns="http://www.w3.org/2000/svg">
<g clip-path="url(#clip0_1551_38)">
<path d="M23.1892 3.13947L19.9381 4.87947L4.23917 13.2795C4.18608 12.8541 4.15937 12.4256 4.15921 11.9967C4.16135 10.2851 4.58912 8.60381 5.40014 7.11934C6.21116 5.63488 7.37728 4.39875 8.78301 3.53339C10.1887 2.66803 11.7853 2.20348 13.4145 2.18574C15.0437 2.168 16.6491 2.5977 18.0716 3.43227L19.9324 2.43627L20.21 2.28747C18.5054 0.987734 16.4918 0.208422 14.3919 0.0356607C12.292 -0.1371 10.1875 0.303418 8.311 1.30853C6.43452 2.31364 4.85911 3.8442 3.7589 5.73106C2.6587 7.61791 2.07653 9.78758 2.07675 12.0003C2.07675 12.3059 2.08779 12.6103 2.10987 12.9135C2.14081 13.3428 2.05016 13.7722 1.84933 14.1476C1.64851 14.523 1.34648 14.8276 0.981257 15.0231L0 15.5487V18.0003L2.88894 16.4535L3.8245 15.9519L4.74636 15.4587L21.2964 6.60027L23.1561 5.60547L27 3.54747V1.09707L23.1892 3.13947Z" fill="black"/>
<path d="M27 6L5.68649 17.4L3.82679 18.3972L0 20.4456V22.8948L3.80052 20.8608L7.05157 19.1208L22.7665 10.7088C22.8197 11.1369 22.8464 11.5682 22.8465 12C22.8455 13.7136 22.4179 15.397 21.606 16.8833C20.7942 18.3696 19.6265 19.6069 18.2187 20.4726C16.811 21.3382 15.2122 21.802 13.5811 21.8179C11.9499 21.8338 10.3432 21.4012 8.92042 20.5632L8.80618 20.6268L6.78884 21.7068C8.4931 23.0066 10.5062 23.7861 12.6058 23.9593C14.7054 24.1325 16.8097 23.6925 18.6862 22.6881C20.5627 21.6837 22.1383 20.1539 23.239 18.2677C24.3397 16.3815 24.9226 14.2124 24.9233 12C24.9233 11.6916 24.9118 11.3832 24.8901 11.0784C24.8592 10.6492 24.9498 10.2199 25.1504 9.84462C25.351 9.46928 25.6527 9.16459 26.0176 8.9688L27 8.4432V6Z" fill="black"/>
</g>
<defs>
<clipPath id="clip0_1551_38">
<rect width="27" height="24" fill="white"/>
</clipPath>
</defs>
</svg>
