<svg xmlns="http://www.w3.org/2000/svg" width="24" height="24" viewBox="0 0 24 24"><g transform="translate(255 -6553)"><g transform="translate(-255 6553)" fill="none" stroke="#28a745" stroke-width="0.5"><circle cx="12" cy="12" r="12" stroke="none"/><circle cx="12" cy="12" r="11.75" fill="none"/></g><g transform="translate(2)"><path d="M.2,3H4.6a.215.215,0,0,0,.2-.2V.4c0-.2.2-.2.3-.1L8.8,4a.446.446,0,0,1,0,.5L5.1,8.1c-.1.2-.3.1-.3-.1V5.5a.215.215,0,0,0-.2-.2H.2c-.1.1-.2,0-.2-.1v-2A.215.215,0,0,1,.2,3Z" transform="translate(-245.8 6558.216)" fill="#28a745"/><path d="M8.675,3h-4.4a.215.215,0,0,1-.2-.2V.4c0-.2-.2-.2-.3-.1L.075,4a.446.446,0,0,0,0,.5l3.7,3.6c.1.2.3.1.3-.1V5.5a.215.215,0,0,1,.2-.2h4.4c.1.1.2,0,.2-.1v-2A.215.215,0,0,0,8.675,3Z" transform="translate(-252 6563.016)" fill="#28a745"/></g></g></svg>